# xmcd
#
# Track frame offsets:
#	150
#	16263
#	35656
#	56972
#	78605
#	103103
#	125206
# Disc length: 1907 seconds
# Revision: 1
# Processed by: cddbd v1.5.1PL2 Copyright (c) Steve Scherf et al.
#
# Submitted via: libkcddb 0.31
#
DISCID=62077107
DTITLE=Barbara Leoni - Human Needs
DYEAR=2003
DGENRE=Rock and Roll
TTITLE0=Don't rain on my parade
TTITLE1=Demons
TTITLE2=Another Time
TTITLE3=Waterfall
TTITLE4=Human needs
TTITLE5=Haunted
TTITLE6=Ring around the rosey
EXTD=Magnatune Release http://www.magnatune.com/artists/leoni
EXTT0=
EXTT1=
EXTT2=
EXTT3=
EXTT4=
EXTT5=
EXTT6=
PLAYORDER=
